<svg id="moon" xmlns="http://www.w3.org/2000/svg" xmlns:xlink="http://www.w3.org/1999/xlink" viewBox="0 0 292.54 290.71"><defs><radialGradient id="radial-gradient" cx="146.29" cy="-44.7" r="145.97" gradientTransform="matrix(1, 0, 0, -0.99, 0, 100.92)" gradientUnits="userSpaceOnUse"><stop offset="0" stop-color="#fff" stop-opacity="0"/><stop offset="0.48" stop-color="#373737" stop-opacity="0.16"/><stop offset="1" stop-opacity="0.4"/></radialGradient></defs><title>moon</title><g id="layer1"><g id="g2885" style="isolation:isolate"><path id="path2893" d="M0,146C-0.34,69.19,62.19,0,146,0c87.83,0,146.54,78.27,146,146-0.57,72-59.35,140.3-136,144.11C63.22,294.73.36,216.79,0,146Z" transform="translate(-0.02)" fill="#bebebe"/><path id="path2891" d="M121.87,288.52c-8.71,1-10.16-5.81-14.1-3.48-2.86-3.48-21.53-5.48-14.58-7.72,8.11,1.89-.35-7-4.34-0.32,0.11-1,2.76-12.39.42-6-5.77,2.84-10.34-1.77-16-2-5.39-4.14.86-7.22,1.72-4.16-1-4.93-11.13-5.37-7.69,0,1.47,4.15-9.07-4-7.43-5.29,3,0.92,9,5.79,4-1.14-3-2.39-14.27-3.5-4.27-3.45,5,0.1,15.82,10.74,15.46,4.31-8.74-2.43-8.23-8.06-1.29-7.68-4.14,4.07,2.92,7,4.65,6.23,3.76-2.2,9.26-2.8,10.45-3.85,0.2-6-6.82-5-10.89-6.79C74.4,244.45,68,242,63.24,240c-4.32-.76-10.77,2.32-12.34-3.39-4.58-1.58-4.56-2.82-8.18-3.22-3.8-7.18,1.35,6.28-1.52,4.61-6,.34,2.08,7.77-5.29,1.19,4.45-1-2.49-5.79-2.83-8.42-7.7-6.7,8.49,3.11,2.59-1.45-5.16-2.43-3.21-9.09,1.6-4.33,7.09,7.08,6.46-5.64.37-3.92-7.09,1.58-4.59-8.12-7.78-4.56,3.16,3.9-3.78,7.45-1.86,1,2.54-2.11,0-11.54-3-7.67,4.33,6.26-1.22,10.62-3.93,3.21-4.64-7.22-.91-10.22,2.69-7.63-5.79-3.3-6.15-6.47-8-14.8C14.48,182.66,9.66,180.2,9,183c2-8.53-5.75-7.62-6.55-15.3A168.64,168.64,0,0,1,.06,141.06C2,114.11,9.64,87.33,25.18,65c1.82-1.22,4.42,2,7.9-4.63,5.64-3.75,8.78-10.84,16-13-1.45-1.65.3-6.16,3.92-5.4,2-7.45,12.11-6.62,16-9,3.65-2,6-7.71,13.23-8,8.49-1.55,15.19-3.39,19.27-8,2-7.17,6.52-.54,9.73-0.53,0.82-1.86-2.06-6.09,2.36-9.1,2.09-4,14.61-5,19.81-3.45C135,6.37,140.53-2,141,3.76c-7.15,1.13-6.23,6.13.76,3.62,6.67,4.17,2.43-.39,9.37,2.25,5,1.36,9.34-3.15,13.37.18,3.33-1.63-6.92-4.8-10.21-3-4.61-1.28,7.9-3.49-.9-3.37-1.66,1.21-8.57-4.23-2.62-2.25C161.32,1.58,172,1.15,182,4.82c12.44,2.49,23.92,8.19,35.2,13.76,21.33,12.35,40.06,29.39,52.9,50.51a161,161,0,0,1,20.66,55.43c1.47,13.19.24,26.67,0.65,40-3.6,18.42-8.65,36.74-18.33,53-4.67,9.45-11.64,17.64-18.27,25.76-7.12,7.6-15.26,14-23,20.82-3.08-.74-12.47,8.62-6.81.72,6.79-6.46-7.46-.14-3.56,5.1-4.87,3.23-.6-8.3,1.48-10.32-2.46-.31-6.78,8.36-11.52,2.81-4.75,2.24-4.29-1.65-1-5.22-5.16-7.72,5.93,3.16,4.56-4.06-4.92-5.61-5.63,3-10.25,2.29-5.15,1.09-14.28-2.28-7.28-3.8,1.36,2.86,3.11-2.71,4.34-5.56-3.67,5.53-4.84,1-4.62-2.12,3.48,2.89,11.54-4.19,7.69-5.42-5.5,3.13-8.5,4.77-8.5-1.29,1.32-4.41-3.36,1.5.64-4.94-1.33-5.92.56-5.11,0.09-8.23-5.49,5.58-6.48-1.66-2.34-4,3.9,0.65,7.36-13.6,6.51-12,4.52,3.13,9.82-7.12,7.95-10.35-5.5-2.69,4.4-4.5,4.64-9.6-4.66.33-7.43,1.36-7.88,6.73-3.39,5.84,4,4.2-3,7.28,1.55,6.46-6.29,2.93-7.54,5.26-1.24,6.11-14.29,15.75-11.87,8.05,7.45,3-2.36-3.86,3-6.64-3.07-4.53-4.89,6.58-4.25-1.72-3.67-4.31,7.37-7.19,7.18-12.93,5.57-4.23-4.38-2.07-6.89-.07-0.82-6.17-3.76.52-4.61,3.5-4.18,4.1,9.58.16,2.25,4.5-2.41,8.74-3.6-.91-9,1-4.47,1.58-.2-11.8-6.12-5.14-3.66,3.52-2,8.07-5.72,12.81-1.51-1.61-5.5-5.44-4.49.67a36.44,36.44,0,0,0-6.3,9.91c-3.3,4.15-3.87,6.55-5.59,4.11,0.28,5.4,7.43,4.63-1.4,3.79-7.05-2,6.34,9.84-4.63,2.89-5.81-4.22-8-3.47-5.68,0-4.39-4.08-12.25-1.54-4.55,2.85-0.18,5.92,3.51,2.08,7.25,3,9.32,3.66-4.51,5.38-6,4.06,1.67,4.59,8,2.94,1,4.95,0,8.15,4.71-3.05,8,2.67-8.86,1.23,2.08,10.42,0,4,1.3-1.28,7.76,9.73,11.24,5.11,1.69,2.67,6.05-4.16,4.42,4.16-7.34,3.74-2.23,4.19,1.17,7.8-1.6,3.62,4.59,8-.72,12-5.2,1.2-7.08-7.47-11-1.84-4.37,4.86-11.52,1.61-17.24,2.5-1,1.83,13.57,7,2.51,5.78-1.59-5.58-1.86,1.22-5.52-.48h0Zm95.32-104.17c0.7-5.26,6.93-2.51,5-5.35-4.11-.6-0.34-3,0.82-5.12,1.27-11.68-8.2,9-8,3.43-3.28-1.3-.25,5.8-2.35,7.22,0.22,3,3.38.83,4.52-.19h0Zm-0.49-20.72c2.32-4.75-2-6.6-2.91-11.53-3.18,2.81-3,.26-7.05.05-3.61-1.75-.87-8.08-6.38-5.23-5.37-2.28-7.47-7.11-6.61-8.92-5.55-4.05,6.86-1.77.28-5.3-4.14-6.68-10,0-9.37,5.83-3.82,6.16,1.26,9.76,5,5.68,5.09,1.65,3.21,11.41-.84,5.14-1.51-2.48-4.27,4.46-5.59-.05,1.6,6-4.34,4.21.89,7.33,1.69,7.86,3.09-1.26,5.81-1.62,6.92,0.11,6.28-8,10.43-7.26,4.47,3-4.93,8.64-.18,9.07a21.63,21.63,0,0,1,7.9,7.38c1.84-2.54,8.53,3.56,8.63-.57h0ZM86.28,139.73c2.45-5-5.82-8.82-7.62-2.49-5,5.23,1,6.89,5.8,5.32C86.08,143.05,85.63,140.53,86.28,139.73ZM166,129.5c1.34-5.76-6-10.37-9.76-6.13-2.93,5,1.66,7.56,2.78,8.74,4.61,3.8,6.19,4.81,7-2.6h0ZM206,268c-2.76-2.28-2.38-2.86-6-2.56,6.73-2.28-2.88-6.67-2.82-1.53-2.21.22-7.87,4.26-8.94-.25,1.48-1.72,10.55-1.81,7.89-6.18,6.93,0,9.67,2.12,10.62,10.54,1.34,1.44-1,1.29-.8,0h0Z" transform="translate(-0.02)" fill="#f1f1f1"/><path id="path2889" d="M108.94,245c-4-2.13,1.42-5.26-1-10,2.68-.88,6.24-3.7.56-6.52-3.35-2.5-7.67-2.65-11.56-4-5.72,2.05,7.1-5.51-1.29-7.48,0.44-7.26,3.67,5.51,7,1,4.56-3.58,4.44,5.43,8.37,5.32,3.78-.56,11.66,9,4.88,7.71-5.92,5-3.79,8.9,3.15,6.21,6-7.13,5.28,6.33.77,5.45-1.46-5.58-6.91-1.87-4.39,2.82,0.21,2.47-5.74,1.68-6.5-.49h0Zm-20.19-1.34c-3.78-4.73-6.33,3.69-9.73-1.52-3.72-.92-1.28-3.81-5.46-6.3-3.65-2-2.52-9-1.82-11.74,4.09,0,9.1-3.65,4.35-7.05-6.66-4.37,1.62-7.1,3.92-1,3.7,3.14,5.29-1.86.37-1.77,2-5.83-4.73-3.23-8.18-3.8-3-2.88-13.6-7.58-8.05-.45,0.78,3.27-3.59,5.62-2,1.07-4.93-1.83-4,1.86-5.81,3.32,1.21,3.79-5.39,6.15.73,9.33-6,6.26-3.87-7.39-8-10.2-5.67-6.46-3.38,4.58-2.12,6.91-4.2,1-8.42-4.32-10.52-7.91-6-1.77-4.29-5.25-6-7.73-5,.69-3.23-7.54-8.35-5.8,3.71-3.37-9.39-9.79-2.48-11.66C15.77,181.61,10.36,175.81,9,169.5c-1.38-3.47-6.72-7.1-5-14C0.8,153.15,3.43,147.75,2.9,144c2.61-4.07.6-9,2.84-13.72,3-7.56-.51-5.39-2.85-10.07,2.52-9.4,4.91-18.91,9.48-27.54C18,88.16,10.3,87.44,16,86.74c0.08,5.38,2.68.85,3.86,5.28,1.23-6.46,4.32-11.11,9.49-14.16,3.69,3.82-2.1,7.6-.35,12.22-1.69,7.24,2.08,8.51,8,3.92-1.53,7.33,4.14-2.08,3.51-3.68-1.35-.77,2.29-4.83,2.66-8.09,7.49-4.74-1.6-6.43,3.64-14.08,2.3-2.36,6.45-6.45,10-5.72,5.89,2,5-11.12,11.64-6.35,9.94-5.94-7.11,1.06.56-5,3.66-5,9.24-3.61,14.42-3.16,3.92-4.2,10.43-1.64,15.57-2.65-1.12,4.87,14.15,9.49,2.53,8.35,0,2.47-3.38,6.87-3.18,10,9.38,1.22-1,6.57,6,6.08,6.23-1.57,3.38,1.15,2,4.83-2.5-.28-8,1.22-7.32,5.72,1.62,4.49-8.7,7-4.42,10.22,2.85,3.56,7.7,4.74,11.93,4.33,3.67-3.81,5.71,1.68,4.54,4.52-0.16,5-4.7,6.67-6,9.59-2.16,7.34-7.62.62-6.57-2.68-5,2.21,2.29,6.66-1.53,10.21-1.3-6-6.92,5.14-6.28-3.15-2.49.81-5.25,6.42-5.35-.29-2.42.27,0.39,10.71-4.61,8-3.62-3.4-3.93,7.69-9.64,3.79,1.36-6.5-10.25-1.13-7.44,4.15-6.66-1.92-9.34,2.12-4.66,2.53-8.91,5.57,6.95,3.37-1.91,8.73,2.71,3.07,9,7,1.76,7.78,2.18,4.84,4.71-2,8.74.13-6.94,4.11-4.44,5.9,1.5,1.7,7.39,1.56-2.8,2.78-3.65,5.9-2-1.47-7.59,5-7.1-.76-6.39,1.63-2.76-10.2-9.56-10.3-3-2.65-3.15-9.6-9.78-8.75,1.38-3.16-3.86-8-7.48-8.94-0.44-2,8.45-3.23,5.22-7.95,0.47-7.33-2.62-8-4.16-3.24-2.22.41-4.26,6-2.72-1.05,1.87-2-1.59-7.29-.25-8.58-6.21,6.39-3.48-9.79-6.59-1.53,5.57,6.65-2.64,6.92,2.06,13.15-5.9.1-2.77,11.08-5.13,15.29-3.21,4.77,8.26,4.29,7.49,1.52-0.11-3.29,8-1.58,9.15,1.55,4.12,2.47,1.29,9.31,7.43,5.8-1.1,6.83-5.73-.17-4.67,4.29-0.06,5.76,4.56-2.64,4.58,3.21-5,1,3.9,7.45-2.46,7.54-3.38-.28,3.63,2.83-2.89,3.93,9.88-1.53-5.59,8.13,4.32,4.27,3.13,1.27,7.6,3.87,10.68,4,3.21,9.95,4.57-3.25,3.46-7.84,1.89-1.82,5.24-1.15,8.41-2.12,4.26,3,12.6-2.55,8.45,6.83-7.93,3.17-5,3.81.5,3.54,0.36,2,9.29,5.79,8.68,1.6-2.23-1.33-3.39-3.82-7.6-4.37,0.62-5.72,3.55-.51,6.54-0.88-2.45-8.48,1.33,4.83,5.31,1.33,6.92-.49-2.11-11.14,7.66-3,5.53,3.94,2.33,10.13-2.47,8.79-0.65,2.39,5.18,13,3.5,7,0.57-6.8,3.41-4.32,3.75.34,4.69-.15,7.11,6.33,9.43,3.05,0.84,0.94,5.17,4.5,7.27,7.06,2.4,6.18,4.72-3.47,3.11-5.23-0.69-4.27-6.5-5.72-7.44-9.05,1.8-4.23-6.49-5.32-3.83-11.19-4.78-6.6,5.47-3.28,1.87,1.24,4.27,7-1.86-2.85,3.32-1.28,5.34,1.78,5.63,8.9,11.81,6.56,5.75,0.93-1.18,6.87,3.8,9,3.56,5.61,6.48-3.72,8.13-1.75,5.15,3.94,1.44,10.49,1.11,15.77-0.77,4.07,4.93,5.17,1.56,10.38,5.64-4.19,9,1.14,8.34,3.67,3.23,2.56,1,9.78-3.66,6.84,2.43,5.32-9.37.78-4,5.92,6.5,4.41-7.32,6.28-4.67,2.14,1.57-6.4-2.8,3.34-4.89,1.24,2.47,5.55-10.18-1.3-4.4,2.54,1.15,3.82-6.29-1.57-8.56-2.38-5.56-3.13-9-9.75-15-12-0.06-5.79,1.64-12.34-3.16-16.83-2.75,3.2-8,5-5.94,7.85-0.49,3.75,5.1,9.15-3.5,10.15-4.14,3.71-1.6,7,1.66,10.25C95.09,228,105.32,228,105.72,232c-7.8,0-9.17.3-5.28,5.4,0.84,2.95-.15,11.84-1.75,4.87-6.8-4-.38,4.72-1.79,3.6a11.38,11.38,0,0,1-8.17-2.3Zm-3.47-54.38c1-6.35-3.22-4.34-1-9.26-3.14,1.2-4.22,2.53-7.23,3-0.66,3.67-2.41,13.77,3.78,12,4.65,3.33,5.55-.06,4.48-5.44l0-.3h0Zm177,41.89c-1.91-2.89,1.12-8.87,3.48-11.87,7.09-3.56,3.49-9.5,7.83-12.68-0.18-4.65-8.73-13.41.4-10.07,5.06-.38-3.94-4.82,2.26-4.06,5-1.82.27-8.69,1.89-2.48-4.12.89-1.51-7.42,0.72-9,5.64-1.24.43-7.91,3.11-9,1,2.65,0,6.19,2.67.16-1.09-3.57-2-10-1.64-8.92,5.19,2.5.33-4.2,1.58-6.42-1.58-.62-3.85,5.49-3.54-1.82-4.76-.41-2.46-7.61-5.81-11-2-4-7.75,2.21-8.17-1.74-0.39,3.92,2,9.25-.08,12.3-3.5-4.43-.26,5.5-5.65,1.07-0.08-3.19-7.4-8.48-5.31-10.59,0.36-3.91,3.71-3.28,6.74-6.4,0.45-7.13-2.57-2.52-4.88-5.64-2.62,2-7.84-3.73-6.86,3.2-3.06-3.42-7.26-.13-8-6.32,5.16-5.48,3.1,1.53,4.78.84,4-5.7-7.46-5.51-9.76-1.45,1.46-5.77,2.38-3.58-4.35-8.17,0.31-2.74,11.66-2.16,1.65-5.45-6,1.07-2.85-5.15-3.14-9.33-2.43,2.47-5.31,1.56-9.61,2.69-4.08,2.77-5.72-2.2-10.33-.82-2,2.33-.32,8.39-0.91,12.14-1.31,5.89,1.16,7.11,3.17,10.6,1.29,3.66-2.79,6.12,2.22,6.89,4.85-6.92-1.5,3,5-.24,7-3.4,9.84,1.09,15,1,1.76,1.93.09,7.82,3,10.68,0.65,6.77,8.29,4.86,7.3,12.45-1.55,3.43-4,8.08-1.84,9.88-7.22.6,2-11.24-3.3-11.93-5.36-.45-5.73,5.19-9.67,1.41-2-.91,3.89,5.62-2.22,7.35-4,.57-2-6.12-1.34-8.12-3.07,2.16-5.8.66-8.43-3.37-1.32-4.29-1.38-7.35.79-9.95,0-1.91,8.08-6.47,1.75-5.34-5.06-3.21-6.15-1.38-8.19,2.35-2.11-.8-5.64-9.23-8.91-4.55-2.41,5.42-4.59-7.87-7.65-5.07,5.07-3.18,3.55-10.15-1.66-10.76-3.67,2.8-8-1.07-11.23,1.39-5.28,4.92-3.68-3.3-3.15-6.5-1,7.61-2.76,2.23-5.95-.5-6-2.12.41,8.45-3.92,1.29,3.18-2.94,4.5-4.68-1.67-7,1.6-4.09-5.31-10.84-6.32-13.68,1.1-4,3.36-3.77,3.92-7.6-5.9-2.37,6.23,1,3-4.37-3.59,1.69-10.68,3.05-16.45,3.44-0.81,4.05,7,3.53,8.45,4.92-2.18,1.14-12.84,6.6-4.32,5.93,7.46,4.71-9.06,3-3.24,8.12-3,1.63,4.76,7-1.75,7-8.59.35-7.15,2.58-1.87,4.51-0.85,3.51-8.87,3-7.82-1.13-0.86-6.95-2.27,4.11-6.67,1.3-5.88-.33.47-3.91-4.94-3.53-6.31,0-9.2,6.79-13.78,10.21,3.69,1,2.25,6.63,6.39,8.78,1.19,2.6,8.8-4.2,5.88,1.85,2.84-3.31,12.51-4.52,10.67,2-0.8,9.61-4.25,10-12.55,8-0.77-7.75-.7-0.75-3.22-1.52-8.59-3.08-6.23,14.45-12.49,14-6.06-3.83-10.53.48-8.12,4.51-3.12-4.87-10.63-13.46-13.32-14.37-5.13-1.17-4.31-10.36-2.48-5.62-3.93-1.21,5,6.44,6.12,2.83-6.9-2.17.38-4.88-1.27-8.27,0.49-3.89,9.11-4.64,5.83.44,2.42-3.52,7.55-1,6.7-6.58-1.3-1.35-8.88.08-1-2.42,4.29-6.16-5.13-2-4.19-6.24,9.26-4.25-7.17-5.84,0-9,4.12-3.85,8-3,11.41-1.48,3.86-4.91,9.39-.19,8.79-7.44-1.45-7.08-.14.41,3-4.11,0.47-2.69-.81-9.4,3.13-3.5,4.75,3.68,5.48-3.9-.12-4.38,4.92-1.62,5-1.55,3-6.53,1.78-3.06-4.87-7.54-.17-6.39-0.82-1.48-.56-9.09-3.86-9.05-9.3,3.83-5.36-3.88-7.27-6.85-5.17,7.91-7.69-10-12.08-2.51-3.74,3.69-3.75-5.44,1.21-3.49,3,1.3,4.64-9.81,3.56-2.31,2.86,2.69-.66,6.61,3.69,1.11,3,3.56,1,3.26,4.95,1.2-0.72,2.43.38,8.59,4.18,7.5,4.88-4.07,2.85-7.26,4-15.21,2.92-5.8,10.93-4,16.42-4.81,4.4-.36,3.14,4,8.56-2.54-2.61-1.49-8.68-.33-7.7-4.89-4.41,2.92-1.94-5.44,1.18-5.88,6,4.1,5.35.28,10.1-.17-0.2,1.81,6.95,9.07,4.85,4,2.57-1.26,6.63-3.75,1.63-4.67,2.07-3.24,10.87-5.45,11,1.16,4.48,0.72,12.56,4.15,3.43,3.68-7.41.47,3.91,1.63-1.49,3.36-7.47,2.63,6.65,2.64.08,3.37-2.6-.66-10.11-1-9.18-4.53-6.95-2.58,1.54,7.44-3,7.84,2.38,5.21,9.15.64,11.66,6.32,8.27,2.76.35,4.18,3.65,6.87,0.92,2.85,5.58-3.09,2.73,4,2.32,3.29,2.58,5.45,5.69,7.81,3.6,2.45,3.25-2.6,6.58.26-1.58-3.67-2.19-7,2.48-7.07-6.45-4.84.5-9.34,3-3.37,0.2,5.53,10.1-.75,8.56,4.69-0.65,5,4.18,4.21,4.82,8.74,4.07,2.06,9.91.08,13.91,2,4.25,6.85,14.86,5,20,11.13,3.41-.6,6.8,3,10.75-1.43,3.24-3.3,7.94,8.74,5.38,0,0.1-9.75-12.19-6.94-10.91-16.2,0.81-6.05,2.43,3.71,5.71,5,3.76,1.09,1.91-5.69-2.29-1.8,5-4.29,5-9.59,1.76-14.81-1.11-5.07-5.31-8.21-8.54-12,3.51,3.07,1.48,7.49,4.28,8.21-0.42,4.7,5.69,7.38,5.16,10.56-2.85,6.54-1-4.51-5.24-3-6.34-5.64,1.57,2.71-1.36,5.22-1.41,3.52-6.1,6.33-9.82,5-5.78-2.51-13.19-4.41-13.91-11-2.89-3.35-8.43-5.55-6.91-10.8-0.07-3.46,2.91-1.71,4.18-5.68-0.12-4,.86-2.12,4-5.09-6.17-6.58,6,4,3.22-6.32-2.41-8.85-3.12-2.83-7.92-7.69-3.51-2.78-4.41.41-9.39-2.88-4.75,1.38-5.2-6.67-10.07-5-1.8-7.84,7.52,3.56,6.81-1.52-5.58-6.32,9.51,4.11,12.45,5.42,7.36,1.51-2,5.95,4.94,3.09a201.71,201.71,0,0,1,32.37,31.34c8,11.45,15.12,23.53,19.84,36.77a159.29,159.29,0,0,1,9.7,50.38c-0.38,11.8-1.34,23.55-4.72,34.93a140.62,140.62,0,0,1-24,51.48l-0.63-.39-0.54-.33h0v0ZM274,120.7c1.18-3.66,1.3-9.92-4-9.24-4.46.57-2.86,6.87-3.36,10.26,2.83,2.9,6.63,7.39,7.37-1h0ZM114.27,86.34c-0.6-4.69-5.67-1.68-8.09-5.85C108.57,76,109.9,81,115,79.2c7.47-2.09,8.33,1.68,3.13,6.95-0.48,1.92-2.87-.08-3.82.19h0ZM118.52,27c-2.86-.62-7.5-2.68-2.5-3.75,2.78-3.2-.26,5.9,4-1.24-2.86-4.19,8.7-6.32,5.18-3.11-3.24,2.39,4.69,1.17,2.31-2.11,5.42-3.5,15-4.3,20-2.5,1.27,6.45,2.66,8.91-2.93,4.94-5.36.82-3.64,6.46-9.48,4.77-1.72-6.43-9.35,0-13.1,1.53-1.18.48-2.82,4.34-3.5,1.48h0Z" transform="translate(-0.02)" fill="#8e8e8e"/><path id="path2887" d="M88.66,242.49c-7-2.54-5.24-.09-3.64-4.78-3.4-1.59-8.06.1-10.55-3.15-3.42-1.7-1.55-8.34.39-6.95-7.56-1.51-.53-3.32,3.12-5.05,4.22-2.3-7.29-11.16.29-7.94,0.28,4.32,6.77,4.64,6.95.25-7.09.56-1.55-5.63-3.52-4.79-1-3.16-6.57.58-10-1-2-1.21,8.2-1.83.72-4.8-4.87-4.84.61,7-3.9,2.12-5.25-3.36,4.27-9.72-1.7-5.67-1.35-2.59-7.84-1.18-7.39,1.13,4.07,0.27,6.15,1.15,1.56,2.8,1.64,6.85-2.28,3.09-4.73,6.48-2.62-.85-11.41-6.74-6.3-1.28,4.56,3.16,1.52,6.56-1.26,1.85-2-4.05-6.34,2.13-8.54-2.36-4.76,1.62-6.49-6-11.5-6-5-2.19,2-5.71.33-9.43-1.16-6.68-4.86.66-2.35,2-4.08-2.89-2.43-6.86-6.1-10.61-8.07-10.47,9.54-.48,5.77-5.51-10.15-2.57,4.41-3.8,5,3.51-0.08,6.77,7.17,3.41,2.74-.7-2.56-2.61,7.43-6.25,1.38-9.49-3.4,5.38-5.71-.61-5.67-0.76-5.28.76,4-1.82,5.56-1.16,1.38-1.76-2.07-.19-2-3.39-6.35,2.68-7.58,1.86-10.21-.88-5.44-1.35,2.78-4.95,3.91-6.08,3,0.08,1.92-3.74-.73-2.54-0.74-5.47-6.57,6-7.86,7.33-4.92-1.05,3.25-5.18-3.12-4.88-7.55-7.83,1.3-2.27,1.21-3.6-5.72-7.45,5.66-1.45,7-6.49,4.5-7.11-.83,3.82,3.5.84-1.32,5.95,5.16.23,3.12,7.5,1-2.14,10.73-5.64,7.64.31-3.11,2.73,2.64,5.93-3.17,8.73,3.2,3.26,7.15-1.11,3.91,3,1.76,4.47,3.71-2.93,7.15,2.11C47,178.45,53,180.61,52,185.83c-3.11,8.62,10.14,3,2.78.53,0.92-1.89-4.93-5.66-2.08-8.12,6.77-1.14,8-2.05,10.21,3.72,6.24,2-1.77,10.07,3.41,10.79,6.78,0.36-3.6,9,5.24,3.25,0.32,2.47,5.91,2.52,4.67,2.49-7.24.84-1.95,5.56,1.36,2.09,3.89-5.74,2.32-2.4,5.34,1.34,1.9,4,8.33.17,8.87,5.32,2.73,3.59,4.58,5.49-1.76,4.75-0.66,4.56-7.35,9.75.13,10.73,2.1,4.86,5,4.7,8.82,6,6.55,2.76-9,3.5-1.55,6.6,5.69,2.52-3.45,5.76-6.18,3.53,0,2.48,3,7.64-2.61,3.66h0ZM265,226.11c2.9-2,6.63-6.36,5.14-10.19,2.36-1.08,2.77-4.86,4.86-5.62,1.09-3.21,4-6.61,3.13-12.14-3.88-5.95,8.6-3.12,2.91-7.25,2.57-5.44,5.5-11.48,2.9-17.41,4.29,7.5.83-9.24,2.25-11.7-0.68-4.83-1.22-8.34,2.23-11.36-6.94,3-1.4-5.38-.62-5.38-5.86,1.4-7.21-3-.74-1.19-0.29,1.66.21-10.05-1.1-5.7-2.37,6.35-6-8.58-1.19-8.26,0.93,8.53,5.53,2.46,2.23.59,0.12-.84-6.41-5.25-2-5.2,1.92-4.38-3.36-8.43.07-10.09,2-3.83-8.56-7.61-6.69-12.58,1.94-3.95-4.81-5.43-3.21-9.83-0.68-3.89-5.08-5.74-3.78-10.74-0.48-8.49-4.6-3.22-2.86,2.32-5.52-6.46-3.41-3.14-3.29-.38-3.7-1.1-4-6.59-3.88-10.15,0.77-2.95.42-6.69,3.66-3-4.71,2.34,1.76,3.9.47,0.23,5.41,7.37.41-6.23-4.67-4.92,2.82-7-7.59-12-10.43-18.06-2.79-6.55-7-6.66-11.09-11.74C230,25.69,245.49,39.9,249,43.5c8.33,7.13,14.45,16.38,20.72,25.25,5.33,11.9,13,22.89,15.87,35.74,3.39,13,6.76,26.15,5.83,39.64,0,9.3.67,18.66-2.13,27.67-3.47,19.7-11.73,38.34-22.4,55.19-0.66,0-1.84.11-1.86-.89h0Zm-139.84-2.68c-3.6-1.45-3.47-3.47-4.81-5.9-0.92-2.56-1.35-7.76,3.37-3.32,3.56,0.91,7.93-4.56,1.07-4.54-5.88-.28-4-5-3.26-9.12,5.8-4.67,8.48-1.78,11.64,2.07,3.35-.06,1.53-8.8-2.55-6.62-1.75-4.27-8.1-.71-7.49-6.34,4.28-4.88-7.65-4-.72-5.95,5.32-1.79-4.48-6.07-3.05-4.91-0.37,5.1-6.62-2-4.56-4.81,0-9.3,7.61,5.66,7.65.69-1.53-4.06,5.5,1.79,3.51,4.55,6.39,5.38-6-.39,2.16,5.56-0.08,1.17-2.3,8.09,2.75,5.09,3.37-.92,9.14-0.45,6.33,4.4,0.32,4.05,1.76,7.35,2.25,11.31,2.7,2.16,4.1,3.05,7.05,5.4,3.46,1.32-7.19,6.19-8.72,9-4.63-1.77-6.77,3.47-9.94,4.54l-2.65-1.12ZM91.5,200.82c-3-2.55-5.85-3.74-4.48-9,4.05-1.09,2.91-2.8-.6-3.48-1.17-9.79,9.13-6.6,4.76-2.25,6.38-3-1.94,2,3.89,4.13,3.43-3.9,8.38,5.48,4.27,3.46-2.52,3.37-5,6.58-7.23,1.1-8.51,2.91,5.23,2,.94,6.22-1.09,1.69-.79,2-1.55-0.15h0Zm143-39.8c-3.3-1.07-7.17-2.32-9.7-6-2.1-1.08,9.77-2.32.84-3.21-7-1.91,3.31-2.82-.84-5-1.45-6.21,6.8-3.13,2.37-5.89-7.42,1.08.8-6.89,2.5-.49,8.33,4.2-3.62-.48,2.29,5.79-6.83,2.42,2.06,4.66,4.6,2.64,2.29-2.57,7.8,11.23,2.68,9.32-3.78-2.67-1.46,6.41-4.74,2.75h0ZM114.84,145.68c-4-2.07-6.58-2.14-6.52-6.68-3.84-1.74,4.62-5.43.81-7-3.54-7.08,6.41-6.09,3.19-10-7.75,0,8.25-1.48.49-3.72,0-5.79,4.06-2.57,6.37-4.75,5.51,0.42,2.68,6,4.19,6.58-6-.1-3.34,9.08-9.18,6-6.39,3.74,7.14,3.56,4.32,9.35-3.52,2.17,1.93,8.45,3.65,3.09,5.05-3.08,7,7.52,1.69,5.73-3-1.68-7.85-1.31-7.33,3.12l-1.68-1.68h0ZM251,130c-0.77-7.51-8.22-2.87-10.32-5.42-2-2.91,2.48-8.84-3-8.58-3.69-1.54-6.05-5.29-4.21-9.37,0.39-4.1.59-17.33,3.56-8,5.56,5.57.1-1.23,1.42-4.7,2.64-3.67-5.07-8.23,2.29-6.39a67.35,67.35,0,0,0,19.61,4.68c1.21,4.6-3.26.1,1.47,5.64,4.38-.08,2.59,3.3,6.13,5.2-1.6,2.37,4,6.21-.87,9.07-3,7.41-6.73-8.57-2.08-4-1.64-5.67-6-5.68-2-1.8-6.48,2.3,2.93,9.59.06,12.68-7.05,1.36-.38,6.84-3.27,10C259.47,132,251.3,131.64,251,130Zm-49-5.12c-8-1.8,4.58-2.55-2.1-3.72-4.83.84-15.13,5.05-14.09-1.72-5.21-5-8.12-1.49-10.71-1.93,5.07-4-1.64-7.44-4-10.52,1.29-4.49-2.17-5.83-5.85-7.06,0.18-5.72,6.57-2.52,4.32-8.12,4.5-1.28,3.54-11.32-1.4-5.8-3.5-3-4.31,4.83-9,2.35-3.72-.41-8.48,1-11.59-0.51-5.32-9.23-1.33,8.25-7.82.26-5.75,1-7.47-3.31-7.82-9.71,2.12-4.31-4.89-8.63-4-9.39,0.93-3.29,3.92-5.11,1.41-9-2.33-5.16,4.38-7.77,4.6-10.47,2.82-.08,11.32-2.09,7.81,2.91-1.28,5.56-8.09-1.47-9.47,3.53-3.6,3.59,6,2.44,5.45.36,4,0.83,7.92,1.53,10.67-2.14,0.34-4.35,5.2-3.64,5.74,1.67,0.72,8.28,0,16.89,1.61,25,0.21,3.88,6.37,7.5,2.71,3.46-0.24-7.16,3.18-.15,7.08-3.38-4.72-1.24-3.16-6.24-6.12-8.54-5.16-4.23,9.66-2.52,1-7.25C153,67.74,157.22,53.43,159,64c5.62,0.07,1.61-5.51-.24-7.67,0.28-4.38.12-8.49-2.71-10.67-0.87-6.72,10.69-.33,6.75-0.74-5.41,2.15,2.23,3.2,3.69,6.12,3.8,1,10.42,3.9,12.33,6.52-4.95,3.33,3.67,5.49,1.72,9.94,4.76-1.94,3.49,4.65,3.62,4.4-3.87,4.52,4.59,1,5.1,4.27,3.3-3.52,10.13,6,9.77-.5,0.64-3.87,5-4.09,2.63-7.76,5.1-2,9.13-2.72,5.95,1.89,2.92,2.38,4.5,7.6,8.25,8.19,5.56-.72,16.78,1.48,5.56,4.8,2.24,4-.4,3.51-0.39,7.9,0.29,7.32,4.63-6.58,7.14.69L228.59,104c-7.22.52,3.08,2.27-.26,4.06-3.56-3.09-8.46,3.68-10.12-1.34-4.08,3.1-7.15-2.63-10.79.41-6,.21-1,7.81-0.21,3-0.8-4.31,6.11-2.89,3.8,1.5,1.63,4.26-4.39,6-.8,9.71,3,3.87-6,7.1-8.2,3.54h0Zm-64.54-7.95c-2.88-2.7-8.51,1-12-1.95-3.12-6.16,4.87,1.79,3.54-3.14,1.72-1.89,6.36-5.12,3.3-7.84-1.24,3.55-4,5.91-3.8-1,0.39-3.49,6.93-1.9,9.75-3.39,0.59,5,11.35,2.36,5.51,7.38,5.46,1,6.92,5.72,6.11-1,5.22-4.44,3.08-2.28,3.84,2.18,4.74,5.36-5.7-5.56-4.27,4.69-3,3.94-8.13,3.13-12,4h0Zm-83-24.07c0.47-7.52,7.38,1.78,8.55-4.36,0.8-3.67-3.08-9.34-5.93-4.68-7.29,5.46.15-5.65-4-4.18-5.12,3.17-4-5-1.41-6,3.71-.41,8.81-3.68,7-7.83,1-.56,3-5.08,6.53-5.61,6.26-.88,8.36,7.89,12.25,11.43,0.17,5.93-4.37.37-5.6,2.57-6,5.87,7,9.87,1.83,13.1-4.75-.1-6.24,3.17-8.13,4.7-2.17,2.42-7.68,3.7-12.5,4.22l1.41-3.36h0Zm36-13.46c-3.8-3.35,3.71-1.37.9-5.4-0.72.12-3.33-8.68-2.62-6.58C94.1,71,93,68,99.26,73.35c6,1.75-6.34,1.67-2,5.84-5.07-3.33-2.94,2.24-7.31,1.48L90.19,80l0.24-.61h0Zm150.2-6.9c-7.09-1.16-8.66-6.86-11.84-10.65-2.17-4,.55-7.13-5.76-3.85-1.15-4.69,1.31-7.51,2.88-4.19-2.75-4.66,1.84-4.79,2.12-8.18,2-1.4,12.52,6.44,10-1.72,9.43,4,3,2.27,1.2,3.18,2.59,2.77,8.08,2.87,10.19,7.34,6.81,6,3.81,5.31.69,8,4.38,3.77,1,9.87-3.86,11.36-1.65,2.61-4-.46-5.63-1.25h0Z" transform="translate(-0.02)" fill="#666"/></g></g><g id="layer5"><path id="path2893-0" d="M0,146C-0.34,69.19,62.19,0,146,0c90,0,146,72.82,146.54,146,0.52,75.22-61.81,142.9-138.72,144.66C56.67,292.87.36,216.79,0,146Z" transform="translate(-0.02)" fill="url(#radial-gradient)"/></g></svg>