<?xml version="1.0" encoding="utf-8"?>
<!-- Generator: Adobe Illustrator 19.2.1, SVG Export Plug-In . SVG Version: 6.00 Build 0)  -->
<svg version="1.1" xmlns="http://www.w3.org/2000/svg" xmlns:xlink="http://www.w3.org/1999/xlink" x="0px" y="0px"
	 viewBox="0 0 50 28" style="enable-background:new 0 0 50 28;" xml:space="preserve">
<style type="text/css">
	.st0{opacity:0.2;}
	.st1{fill:#231F20;}
	.st2{opacity:0.2;fill:#231F20;}
	.st3{fill:#4F5D73;}
	.st4{fill:#FFFFFF;}
	.st5{fill:#C75C5C;}
	.st6{fill:none;}
	.st7{font-family:'OCRAStd';}
	.st8{font-size:5px;}
	.st9{font-size:2px;}
</style>
<g id="blimp">
	<title>Circle-icons-blimp_edit</title>
	<g id="blimpShadow" class="st0">
		<path class="st1" d="M33,24H23c-1.1,0-1,0.9-1,2s1.9,2,3,2h6c1.1,0,3-0.9,3-2S34.1,24,33,24z"/>
		<path class="st2" d="M-6-20"/>
	</g>
	<path id="blimpCarriage" class="st3" d="M34,24c0,1.1-1.9,2-3,2h-6c-1.1,0-3-0.9-3-2l0,0c0-1.1-0.1-2,1-2h10C34.1,22,34,22.9,34,24
		L34,24z"/>
	<path id="topFin" class="st3" d="M-6-20"/>
	<path id="bottomFin" class="st3" d="M-6-20"/>
	<ellipse id="blimpBackground" class="st4" cx="28" cy="10" rx="22" ry="10"/>
	<path id="centerfinShadow" class="st4" d="M-6-20"/>
	<path id="centerFin" class="st5" d="M1,11c-0.8,0-1-0.4-1-1.2l0,0C0,9,0.2,9,1,9l12-1c0.8,0,3,1.2,3,2h-0.1c0,0.8-2.1,2-2.9,2L1,11
		z"/>
</g>
<g id="letsGo">
	<rect x="16.8" y="8.9" class="st6" width="26.4" height="12.2"/>
	<text id="letsgotext" transform="matrix(1 0 0 1 16.8335 12.6016)" class="st4 st7 st8">Lets Go </text>
</g>
<g id="redSox">
	<rect x="16.8" y="8.9" class="st6" width="39.3" height="12.2"/>
	<text id="redSoxtext" transform="matrix(1 0 0 1 16.8335 12.6016)"><tspan x="0" y="0" class="st4 st7 st8">Red Sox!!!</tspan><tspan x="36" y="0" class="st4 st7 st9"> </tspan></text>
</g>
</svg>
