<?xml version="1.0" encoding="utf-8"?>
<!-- Generator: Adobe Illustrator 19.2.1, SVG Export Plug-In . SVG Version: 6.00 Build 0)  -->
<svg version="1.1" id="svg2" xmlns:svg="http://www.w3.org/2000/svg"
	 xmlns="http://www.w3.org/2000/svg" xmlns:xlink="http://www.w3.org/1999/xlink" x="0px" y="0px" viewBox="0 0 199 199"
	 style="enable-background:new 0 0 199 199;" xml:space="preserve">
<style type="text/css">
	.st0{fill:#051C43;}
	.st1{fill:#FFFFFF;}
	.st2{fill:#ED171F;}
</style>
<g id="RS_x5F_Logo">
	<rect id="background" y="0" class="st0" width="198.5" height="198.5"/>
	<path id="B_x5F_Outline" class="st1" d="M71.9,184.7c18.6,9.9,37,11.6,51.7,4.8c10.7-5,18.4-14,20.6-24.1c3.8-17.8,6.6-21,10.3-24
		l2.5-2c0,0-2.3-2.2-2.3-2.2l-1.3-1.2c-2.1-2.1-2.5-2.4-5-7.4c-1-2-1.9-5.1-3-8.6c-2.8-9.4-6.6-22.3-16.9-28.7l0.1,4.7
		c9.9-6.6,11.3-14.4,12.4-20.7c0.5-2.7,1-5.3,2.1-7.5c2.2-4.5,2.9-5.1,4.7-6.8c0.5-0.5,1.2-1.1,1.9-1.8l2.2-2.2l-2.5-2
		c-3.3-2.6-7-5.5-11-24c-2.3-10.7-12.3-20.4-24.9-24.2C104.7,4,86.6,2.1,67.6,20.5l4.5,0.7C64.7,6.8,55.7,6.5,50.9,7.7
		C43.7,9.4,38,16.2,38,21v2.7l2.7,0.1c8.6,0.3,14.9,5,14.9,11.2v50.6c0,4.5-5.4,8.2-8.3,10.2c-0.5,0.4-1,0.7-1.3,0.9L43,99l3,2.2
		c0.4,0.3,0.8,0.6,1.3,0.9c2.9,2,8.3,5.7,8.3,10.2V167c0,6.2-6.3,11-14.9,11.2l-2.7,0.1v2.7c0,4.1,3.6,8.6,8.8,10.9
		c4,1.8,14.9,4.6,28.3-7.6L71.9,184.7z M40.9,183.8c11.8-0.4,20.4-7.4,20.4-16.8v-54.6c0-7.4-7.3-12.4-10.7-14.8
		c-0.5-0.3-0.9-0.6-1.1-0.8v4.5c0.3-0.2,0.7-0.5,1.1-0.8C54,98,61.3,93,61.3,85.6V35c0-9.4-8.6-16.5-20.4-16.8l2.7,2.8
		c0-1.7,3.4-6.6,8.6-7.8C59.2,11.5,64.1,18,67,23.8l1.7,3.4l2.7-2.7c16.9-16.4,32.8-14.8,40.7-12.4c10.5,3.2,19.2,11.4,21,20
		c4.1,18.9,8.2,23.4,13,27.2l-0.2-4.2c-0.7,0.7-1.3,1.2-1.8,1.7c-2.2,2.1-3.3,3.2-5.9,8.4c-1.5,2.9-2,6-2.6,9c-1.1,6-2.1,11.7-10,17
		l-3.6,2.4l3.7,2.3c8.5,5.3,11.8,16.5,14.5,25.5c1.1,3.8,2.1,7.1,3.3,9.5c2.8,5.6,3.5,6.4,6.1,8.9l1.2,1.2l0.3-4.2
		c-5.4,4.2-8.5,9.2-12.4,27.2c-1.8,8.3-8.5,16-17.5,20.2c-13.1,6.1-29.7,4.4-46.7-4.6l-1.8-0.9l-1.5,1.3c-7.7,7-15.8,9.5-22.2,6.6
		c-3.6-1.6-5.5-4.4-5.5-5.8L40.9,183.8z"/>
	<path id="B" class="st2" d="M73.2,182.3c37.4,20,64.2,1.2,68.3-17.5c3.9-18.2,7-22.2,11.4-25.6c-3.4-3.4-3.6-3.1-6.8-9.4
		c-4-8-5.7-28.1-18.8-36.2c13.1-8.7,9.6-19.2,13.5-27.1c3.1-6.2,3.7-5.9,7.2-9.4c-4.4-3.4-8.1-7.4-12-25.6
		c-4.1-18.7-36.8-37.8-66.5-9C57.7-0.9,40.8,14.7,40.8,21c10.3,0.3,17.6,6.2,17.6,14c0,4.1,0,43.7,0,50.6c0,6.9-8.3,11.5-10.8,13.4
		c2.5,1.9,10.8,6.5,10.8,13.4s0,50.5,0,54.6c0,7.8-7.3,13.7-17.6,14C40.8,187.2,55.2,198.8,73.2,182.3z M78.3,139.2
		c0-9.8,0-17.8,0-20.4c0-4.4,7.8-13.7,24.3-13.7c15.6,0,28.5,14.9,22.9,24.8c-3.1,6.2-3.3,5.9-6.7,9.4c3.4,3.4,3.6,3.1,6.7,9.4
		c1.9,4.7,9.2,26.5-22.9,26.5c-16.5,0-24.3-9.4-24.3-13.7C78.3,158.7,78.3,149,78.3,139.2z M101.8,88.2c-16.5,0-23.6-5.5-23.9-16.6
		c-0.1-2.4,0-5.6,0-14.5c0-8.9,0-10.7,0-13.1c0-6.4,7.3-18.3,23.9-18.3c13.1,0,27.9,14.2,22.4,23.1c-2.2,3.7-3,5-6,8.3
		C129.5,66.2,124.5,87.7,101.8,88.2z"/>
	<path id="LowerBInside" class="st1" d="M81.1,139.2v-20.4c0-2.6,6.5-10.9,21.5-10.9c9.1,0,16.5,5.6,19.6,10.9
		c1.2,2.1,2.9,6.1,0.9,9.8c-2.6,5.1-2.9,5.4-5.1,7.6l-1.2,1.2l-2,2c0,0,2,2,2,2l1.2,1.2c2.2,2.2,2.5,2.4,5,7.5
		c1.1,2.8,3.4,10.2-0.2,15.6c-3.1,4.6-9.9,6.9-20.2,6.9c-15,0-21.5-8.3-21.5-10.9L81.1,139.2L81.1,139.2z M75.5,161.4
		c0,5.9,9.1,16.5,27.1,16.5c12.3,0,20.7-3.1,24.9-9.3c5.1-7.6,2.2-17.3,0.7-21.1c-2.9-5.9-3.6-6.6-6.2-9.2l-1.1-1.1v4l1.1-1.1
		c2.6-2.6,3.3-3.3,6.1-9c2.4-4.4,2.1-9.9-1-15.2c-4-6.8-13.1-13.6-24.4-13.6c-18.1,0-27.1,10.6-27.1,16.5v20.4V161.4L75.5,161.4z"/>
	<path id="UpperBInside" class="st1" d="M101.8,85.4c-18.2,0-20.9-7-21.1-13.8c0-1.4,0-3,0-6l0-8.4V44.1c0-5.2,6.4-15.5,21.1-15.5
		c8,0,16.3,6,19.4,11.5c1.1,2,2.1,4.8,0.6,7.3c-2.2,3.7-2.9,4.8-5.7,7.9l-2,2.2l2.3,1.9c4.3,3.4,5.8,9.2,4,14.7
		C118.1,80.9,111.1,85.2,101.8,85.4z M120.3,59c3-3.3,4-4.8,6.3-8.7c2.3-3.6,2.1-8.2-0.5-12.9c-4-7.1-14.1-14.4-24.3-14.4
		C83,23,75.2,36.7,75.2,44.1v13.1l0,8.4c0,3.1,0,4.7,0,6.2c0.4,13,9.1,19.3,26.7,19.3c11.8-0.2,20.8-5.9,23.9-15.1
		c2.6-7.8,0.4-16-5.7-20.9L120.3,59z"/>
</g>
</svg>
